# Blender v2.73 (sub 0) OBJ File: 'fence.blend'
# www.blender.org
mtllib fence.mtl
v -6.068362 0.742495 1.079254
v -6.345629 0.742495 1.079254
v -6.068362 0.742495 1.423246
v -6.345629 0.742495 1.423246
v -6.068362 5.434057 1.079254
v -6.345629 5.434057 1.079254
v -6.068362 5.434057 1.423246
v -6.345629 5.434057 1.423246
v -4.428274 0.560004 1.097009
v -4.705542 0.560004 1.097009
v -4.428274 0.560004 1.441000
v -4.705542 0.560004 1.441000
v -4.428274 5.251566 1.097009
v -4.705542 5.251566 1.097009
v -4.428274 5.251566 1.441000
v -4.705542 5.251566 1.441000
v -3.298040 0.627127 1.155432
v -3.575306 0.627127 1.155432
v -3.298040 0.627127 1.499423
v -3.575306 0.627127 1.499423
v -3.298040 5.318689 1.155432
v -3.575306 5.318689 1.155432
v -3.298040 5.318689 1.499423
v -3.575306 5.318689 1.499423
v -2.090247 0.728976 1.171464
v -2.367514 0.728976 1.171464
v -2.090247 0.728976 1.515456
v -2.367514 0.728976 1.515456
v -2.090247 5.420538 1.171464
v -2.367514 5.420538 1.171464
v -2.090247 5.420538 1.515456
v -2.367514 5.420538 1.515456
v -0.790539 0.476784 1.234728
v -1.067805 0.476784 1.234728
v -0.790539 0.476784 1.578720
v -1.067805 0.476784 1.578720
v -0.790539 5.168346 1.234728
v -1.067805 5.168346 1.234728
v -0.790539 5.168346 1.578720
v -1.067805 5.168346 1.578720
v 0.928193 0.485258 1.161933
v 0.650926 0.485258 1.161933
v 0.928193 0.485258 1.505925
v 0.650926 0.485258 1.505925
v 0.928193 5.176820 1.161933
v 0.650926 5.176820 1.161933
v 0.928193 5.176820 1.505925
v 0.650926 5.176820 1.505925
v -2.143620 1.587751 1.094380
v -2.154449 1.310932 1.082943
v -2.145755 1.573635 1.438075
v -2.156583 1.296817 1.426639
v -6.831512 1.772029 1.072838
v -6.842341 1.495211 1.061401
v -6.833647 1.757913 1.416533
v -6.844476 1.481095 1.405096
v 1.930974 1.881708 1.175380
v 1.920144 1.604889 1.163943
v 1.928839 1.867592 1.519075
v 1.918010 1.590774 1.507639
v -2.756919 2.065986 1.153838
v -2.767748 1.789168 1.142401
v -2.759053 2.051870 1.497533
v -2.769882 1.775051 1.486097
v 2.124822 3.953142 1.240298
v 2.113993 3.676322 1.228862
v 2.122687 3.939026 1.583994
v 2.111859 3.662207 1.572557
v -2.563071 4.137419 1.218756
v -2.573900 3.860601 1.207319
v -2.565205 4.123303 1.562452
v -2.576034 3.846485 1.551015
v -1.926690 3.724352 1.189756
v -1.937519 3.447532 1.178319
v -1.928825 3.710236 1.533451
v -1.939653 3.433417 1.522015
v -6.614582 3.908629 1.168214
v -6.625411 3.631811 1.156777
v -6.616716 3.894513 1.511909
v -6.627545 3.617695 1.500473
vn 0.000000 -1.000000 0.000000
vn 0.000000 1.000000 0.000000
vn 0.000000 0.000000 1.000000
vn -1.000000 0.000000 0.000000
vn 0.000000 0.000000 -1.000000
vn 1.000000 0.000000 0.000000
vn 0.999200 -0.039300 0.004600
vn -0.999200 0.039300 -0.004600
vn -0.006200 -0.041000 0.999100
vn -0.039100 -0.998400 -0.041200
vn 0.006200 0.041000 -0.999100
vn 0.039100 0.998400 0.041200
usemtl Material.001
s off
f 2//1 1//1 3//1
f 7//2 5//2 6//2
f 3//3 7//3 8//3
f 4//4 8//4 6//4
f 2//5 6//5 5//5
f 1//6 5//6 7//6
f 10//1 9//1 11//1
f 15//2 13//2 14//2
f 11//3 15//3 16//3
f 12//4 16//4 14//4
f 10//5 14//5 13//5
f 9//6 13//6 15//6
f 18//1 17//1 19//1
f 23//2 21//2 22//2
f 19//3 23//3 24//3
f 20//4 24//4 22//4
f 18//5 22//5 21//5
f 17//6 21//6 23//6
f 26//1 25//1 27//1
f 31//2 29//2 30//2
f 27//3 31//3 32//3
f 28//4 32//4 30//4
f 26//5 30//5 29//5
f 25//6 29//6 31//6
f 34//1 33//1 35//1
f 39//2 37//2 38//2
f 35//3 39//3 40//3
f 36//4 40//4 38//4
f 34//5 38//5 37//5
f 33//6 37//6 39//6
f 42//1 41//1 43//1
f 47//2 45//2 46//2
f 43//3 47//3 48//3
f 44//4 48//4 46//4
f 42//5 46//5 45//5
f 41//6 45//6 47//6
f 52//7 50//7 49//7
f 56//8 55//8 53//8
f 51//9 55//9 56//9
f 52//10 56//10 54//10
f 50//11 54//11 53//11
f 49//12 53//12 55//12
f 60//7 58//7 57//7
f 63//8 61//8 62//8
f 59//9 63//9 64//9
f 58//10 60//10 64//10
f 58//11 62//11 61//11
f 57//12 61//12 63//12
f 68//7 66//7 65//7
f 71//8 69//8 70//8
f 67//9 71//9 72//9
f 66//10 68//10 72//10
f 66//11 70//11 69//11
f 65//12 69//12 71//12
f 76//7 74//7 73//7
f 79//8 77//8 78//8
f 75//9 79//9 80//9
f 74//10 76//10 80//10
f 74//11 78//11 77//11
f 75//12 73//12 77//12
f 4//1 2//1 3//1
f 8//2 7//2 6//2
f 4//3 3//3 8//3
f 2//4 4//4 6//4
f 1//5 2//5 5//5
f 3//6 1//6 7//6
f 12//1 10//1 11//1
f 16//2 15//2 14//2
f 12//3 11//3 16//3
f 10//4 12//4 14//4
f 9//5 10//5 13//5
f 11//6 9//6 15//6
f 20//1 18//1 19//1
f 24//2 23//2 22//2
f 20//3 19//3 24//3
f 18//4 20//4 22//4
f 17//5 18//5 21//5
f 19//6 17//6 23//6
f 28//1 26//1 27//1
f 32//2 31//2 30//2
f 28//3 27//3 32//3
f 26//4 28//4 30//4
f 25//5 26//5 29//5
f 27//6 25//6 31//6
f 36//1 34//1 35//1
f 40//2 39//2 38//2
f 36//3 35//3 40//3
f 34//4 36//4 38//4
f 33//5 34//5 37//5
f 35//6 33//6 39//6
f 44//1 42//1 43//1
f 48//2 47//2 46//2
f 44//3 43//3 48//3
f 42//4 44//4 46//4
f 41//5 42//5 45//5
f 43//6 41//6 47//6
f 51//7 52//7 49//7
f 54//8 56//8 53//8
f 52//9 51//9 56//9
f 50//10 52//10 54//10
f 49//11 50//11 53//11
f 51//12 49//12 55//12
f 59//7 60//7 57//7
f 64//8 63//8 62//8
f 60//9 59//9 64//9
f 62//10 58//10 64//10
f 57//11 58//11 61//11
f 59//12 57//12 63//12
f 67//7 68//7 65//7
f 72//8 71//8 70//8
f 68//9 67//9 72//9
f 70//10 66//10 72//10
f 65//11 66//11 69//11
f 67//12 65//12 71//12
f 75//7 76//7 73//7
f 80//8 79//8 78//8
f 76//9 75//9 80//9
f 78//10 74//10 80//10
f 73//11 74//11 77//11
f 79//12 75//12 77//12
