# Blender v2.73 (sub 0) OBJ File: 'PacFinal.blend'
# www.blender.org
o Icosphere
v -0.353143 -3.465952 -1.127340
v -2.057049 -1.568789 -3.718441
v 1.575974 -1.625876 -3.598969
v 2.585932 -1.585293 -0.106858
v -0.422935 -1.503148 1.931885
v -3.292432 -1.492939 -0.300217
v -0.171013 1.484442 -4.299366
v 2.698484 1.474233 -2.067265
v 1.463101 1.550083 1.350959
v -2.169922 1.607171 1.231487
v -3.179880 1.566587 -2.260624
v -0.240805 3.447246 -1.240142
v 0.770893 -2.991260 -2.570214
v -1.364528 -2.957704 -2.640438
v -0.230630 -1.876133 -4.093233
v -3.092195 -1.797989 -2.154274
v -2.090663 -2.913121 -0.631271
v 1.364538 -2.967404 -0.517614
v 2.498451 -1.885837 -1.970391
v -0.404027 -2.919122 0.680716
v 1.323527 -1.813699 1.280549
v -2.131697 -1.759412 1.166896
v -3.026056 0.000356 -3.306575
v -3.752194 0.044939 -1.297400
v 0.877958 -0.081491 -4.434701
v -1.257487 -0.047937 -4.504936
v 3.158246 -0.063645 -1.070082
v 2.564618 -0.087491 -3.122708
v -0.132042 -0.002732 -0.613689
v 0.171433 -0.011019 -0.819354
v -0.788192 0.004059 -0.850980
v -0.498628 0.003028 -0.625777
v -1.917475 1.794993 -3.648031
v 1.537749 1.740706 -3.534379
v 2.498246 1.779284 -0.213208
v -0.363318 1.857427 1.725750
v -3.092400 1.867131 -0.397091
v -0.189921 2.900415 -3.048198
v -1.958486 2.948698 -1.849868
v 1.496715 2.894415 -1.736212
v 0.770581 2.938998 0.272956
v -1.364841 2.972553 0.202731
v -2.934371 0.383594 0.722895
v -2.947073 0.387174 0.700469
v -0.820618 0.144400 2.133499
v -0.771795 0.151163 2.146857
v 0.005332 0.218784 2.262796
v -0.009777 0.221327 2.265897
v 2.432192 0.353072 0.829931
v 2.449041 0.356803 0.804470
v -2.478343 -0.331298 0.984667
v -2.466681 -0.333975 0.999406
v -1.473359 -0.109601 1.660817
v -1.479003 -0.110448 1.658290
v 0.249049 -0.137193 1.738932
v 0.278806 -0.142485 1.727835
v 2.283070 -0.294381 0.608393
v 2.243159 -0.301602 0.652256
v -1.893076 1.853773 -0.954759
v -2.510693 1.863477 -0.975070
v -2.182742 2.176295 -1.395254
v -3.010378 2.198896 -0.834459
v -2.720709 1.876372 -0.393968
v -1.721378 1.860672 -0.361096
v -1.393422 2.173488 -0.781275
v -2.232892 1.874637 -0.014509
v -1.733240 2.194352 0.158978
v -2.732578 2.210053 0.126107
v -2.991248 2.719022 -1.167733
v -3.201266 2.731917 -0.586630
v -1.862110 2.695350 -1.494015
v -2.479734 2.705055 -1.514329
v -1.202593 2.700511 -0.520884
v -1.374285 2.693615 -1.114554
v -1.924125 2.727374 0.406816
v -1.412611 2.713406 0.060220
v -3.029573 2.738814 0.007041
v -2.541749 2.737078 0.386502
v -2.670619 3.238076 -1.266491
v -1.671281 3.222375 -1.233619
v -1.393482 3.233532 -0.273054
v -2.221118 3.256134 0.287741
v -3.010437 3.258940 -0.326238
v -2.170967 3.557792 -1.093004
v -2.682480 3.571756 -0.746417
v -1.683150 3.556056 -0.713545
v -1.893166 3.568951 -0.132443
v -2.510783 3.578656 -0.152754
v -2.185684 3.715949 -0.570069
v -3.035738 3.172015 -0.865218
v -2.743633 3.183753 0.144788
v -1.692872 3.167242 0.179342
v -1.335568 3.145305 -0.809294
v -2.165499 3.148257 -1.454873
v -3.068291 2.287124 -0.298219
v -2.238360 2.284172 0.347360
v -1.368121 2.260413 -0.242295
v -1.660226 2.248675 -1.252301
v -2.710987 2.265186 -1.286855
v -2.218175 1.716479 -0.537444
v 1.788461 1.611699 -0.522123
v 1.295649 2.160406 -1.271533
v 2.346411 2.143895 -1.236980
v 2.638515 2.155633 -0.226974
v 1.768276 2.179391 0.362681
v 0.938346 2.182344 -0.282898
v 1.841138 3.043477 -1.439552
v 2.671068 3.040525 -0.793972
v 2.313764 3.062462 0.194663
v 1.263003 3.078974 0.160109
v 0.970899 3.067235 -0.849897
v 1.820952 3.611169 -0.554748
v 2.113561 1.748993 -0.939438
v 1.495944 1.758698 -0.959748
v 1.823895 2.071515 -1.379933
v 0.996259 2.094116 -0.819138
v 1.285927 1.771592 -0.378647
v 2.285258 1.755892 -0.345775
v 2.613214 2.068708 -0.765954
v 1.773744 1.769857 0.000812
v 2.273396 2.089572 0.174299
v 1.274059 2.105273 0.141428
v 1.015388 2.614242 -1.152412
v 0.805371 2.627137 -0.571308
v 2.144527 2.590570 -1.478694
v 1.526903 2.600275 -1.499007
v 2.804043 2.595732 -0.505563
v 2.632351 2.588835 -1.099233
v 2.082511 2.622594 0.422137
v 2.594025 2.608626 0.075541
v 0.977063 2.634034 0.022363
v 1.464887 2.632298 0.401824
v 1.336017 3.133296 -1.251169
v 2.335355 3.117595 -1.218298
v 2.613155 3.128753 -0.257733
v 1.785519 3.151354 0.303063
v 0.996200 3.154160 -0.310916
v 1.835670 3.453012 -1.077682
v 1.324156 3.466977 -0.731096
v 2.323486 3.451276 -0.698223
v 2.113470 3.464171 -0.117122
v 1.495853 3.473876 -0.137432
vt 0.342650 0.449837
vt 0.372250 0.516453
vt 0.310688 0.515353
vt 0.373168 0.561809
vt 0.426514 0.559525
vt 0.229079 0.445071
vt 0.345273 0.303129
vt 0.456318 0.449134
vt 0.381088 0.593143
vt 0.308150 0.560647
vt 0.340787 0.554080
vt 0.327464 0.582045
vt 0.000163 0.624777
vt 0.254919 0.556457
vt 0.260299 0.629979
vt 0.332819 0.999837
vt 0.128441 0.921293
vt 0.327371 0.762832
vt 0.678660 0.636903
vt 0.539882 0.928645
vt 0.364695 0.752566
vt 0.353101 0.582503
vt 0.299114 0.591677
vt 0.309801 0.751589
vt 0.346728 0.763178
vt 0.418509 0.632807
vt 0.340001 0.598001
vt 0.356390 0.605489
vt 0.339712 0.614181
vt 0.306567 0.618013
vt 0.323355 0.604898
vt 0.325596 0.624091
vt 0.327224 0.649611
vt 0.311538 0.641922
vt 0.331990 0.638626
vt 0.350925 0.650035
vt 0.339060 0.650644
vt 0.346555 0.638887
vt 0.372699 0.619195
vt 0.366876 0.642912
vt 0.353464 0.624589
vt 0.339463 0.628115
vt 0.350993 0.650279
vt 0.339056 0.650879
vt 0.327147 0.649853
vt 0.678660 0.223759
vt 0.350691 0.000163
vt 0.014933 0.211891
vt 0.678987 0.641857
vt 0.717589 0.558083
vt 0.719377 0.558083
vt 0.793146 0.000163
vt 0.762556 0.104787
vt 0.759471 0.104787
vt 0.678987 0.105114
vt 0.792656 0.105114
vt 0.710046 0.206538
vt 0.678987 0.388282
vt 0.793075 0.388282
vt 0.730170 0.473152
vt 0.678987 0.724916
vt 0.710816 0.642184
vt 0.712488 0.642184
vt 0.792276 0.207130
vt 0.741833 0.299248
vt 0.739705 0.299248
vt 0.678987 0.299575
vt 0.793147 0.299575
vt 0.708909 0.387955
vt 0.793146 0.473541
vt 0.758623 0.557757
vt 0.755014 0.557757
vt 0.000000 0.000000
vt 1.000000 0.000000
vt 1.000000 1.000000
vt 0.793040 0.641857
vt 0.678987 0.000163
vt 0.708196 0.206804
vt 0.728206 0.473214
vt 0.792885 0.724916
vt 0.678987 0.207130
vt 0.706964 0.387955
vt 0.678987 0.473541
vn -0.004500 -0.948900 -0.315700
vn -0.578100 -0.660300 -0.479300
vn 0.302900 -0.949900 -0.076600
vn 0.170500 -0.941800 0.289600
vn -0.218700 -0.935700 0.276800
vn -0.765300 -0.327100 -0.554400
vn 0.292000 -0.349700 -0.890200
vn 0.938300 -0.345500 0.011700
vn 0.330600 0.796000 0.507000
vn -0.383300 0.806700 0.449800
vn -0.558600 -0.129900 -0.819200
vn 0.606900 -0.148300 -0.780900
vn 0.080800 0.511200 0.855600
vn -0.003200 0.861600 0.507500
vn -0.120800 0.514400 0.849000
vn -0.160300 0.652400 -0.740700
vn 0.652100 0.644800 -0.398800
vn 0.578100 0.660300 0.479300
vn -0.279900 0.677500 0.680100
vn -0.736300 0.672600 -0.073900
vn -0.302900 0.949900 0.076600
vn -0.570200 0.806700 0.155500
vn -0.587400 0.678600 0.441000
vn 0.004500 0.948900 0.315700
vn -0.006900 0.804700 0.593700
vn 0.255800 0.669100 0.697800
vn 0.326900 0.940000 0.097300
vn 0.583800 0.788500 0.193500
vn 0.760300 0.649100 -0.024700
vn 0.218700 0.935700 -0.276800
vn 0.385500 0.780600 -0.492000
vn 0.229000 0.646300 -0.727900
vn -0.170500 0.941800 -0.289600
vn -0.327700 0.791800 -0.515500
vn -0.603900 0.664500 -0.440100
vn -0.938300 0.345500 -0.011700
vn -0.142100 -0.396600 0.906900
vn -0.589500 -0.780100 0.209400
vn -0.061400 -0.782000 0.620200
vn -0.032800 -0.783900 0.620000
vn -0.004100 -0.782900 0.622100
vn 0.549700 -0.798000 0.246900
vn 0.069700 -0.400000 0.913900
vn 0.947500 0.315900 0.050300
vn 0.772400 0.308900 -0.555000
vn 0.605900 0.165100 -0.778200
vn 0.349300 0.310400 -0.884100
vn -0.280500 0.320300 -0.904800
vn -0.548000 0.183200 -0.816200
vn -0.724200 0.332400 -0.604200
vn -0.334100 -0.840900 0.425700
vn -0.359900 0.808000 0.466500
vn -0.338100 0.806500 0.485000
vn 0.278900 -0.850600 0.445800
vn 0.353800 0.796800 0.489900
vn 0.378100 0.794700 0.474800
vn 0.954900 0.105600 -0.277400
vn 0.940400 -0.207300 -0.269600
vn 0.789400 -0.351500 -0.503300
vn 0.034400 0.108900 -0.993500
vn 0.029000 -0.204100 -0.978500
vn -0.243700 -0.341300 -0.907800
vn -0.930900 0.135200 -0.339400
vn -0.926700 -0.178000 -0.331000
vn -0.947500 -0.315900 -0.050300
vn -0.652100 -0.644800 0.398800
vn -0.385500 -0.780600 0.492000
vn -0.229000 -0.646300 0.727900
vn 0.160300 -0.652400 0.740700
vn 0.327700 -0.791800 0.515500
vn 0.603900 -0.664500 0.440100
vn 0.736300 -0.672600 0.073900
vn 0.570200 -0.806700 -0.155500
vn 0.587400 -0.678600 -0.441000
vn -0.760300 -0.649100 0.024700
vn -0.583800 -0.788500 -0.193500
vn -0.326900 -0.940000 -0.097300
vn 0.279900 -0.677500 -0.680100
vn 0.006900 -0.804700 -0.593700
vn -0.255800 -0.669100 -0.697800
vn 0.810200 -0.295800 -0.506100
vn 0.289900 -0.294200 -0.910700
vn -0.244600 -0.351200 -0.903800
vn -0.749800 -0.367600 -0.550100
vn -0.789100 -0.114500 0.603500
vn -0.391100 -0.117200 0.912900
vn 0.343500 -0.036400 0.938400
vn 0.741900 -0.183300 0.644900
vn -0.789400 0.351500 0.503300
vn -0.940400 0.207300 0.269600
vn 0.243700 0.341300 0.907800
vn -0.029000 0.204100 0.978500
vn -0.292000 0.349700 0.890200
vn 0.926700 0.178000 0.331000
vn 0.765300 0.327100 0.554400
vn -0.349300 -0.310400 0.884100
vn -0.605900 -0.165100 0.778200
vn -0.606900 0.148300 0.780900
vn 0.724200 -0.332400 0.604200
vn 0.548000 -0.183200 0.816200
vn 0.558600 0.130000 0.819200
vn -0.930900 0.135300 -0.339400
vn 0.578100 0.660300 0.479400
vn -0.954900 -0.105600 0.277400
vn -0.034400 -0.108900 0.993500
vn 0.930900 -0.135200 0.339400
vn -0.558600 -0.130000 -0.819200
vn -0.772400 -0.308900 0.555000
vn 0.280500 -0.320300 0.904800
vn -0.578100 -0.660300 -0.479400
vn 0.326900 0.940100 0.097300
vn 0.558600 0.129900 0.819200
s off
f 1/1/1 14/2/1 13/3/1
f 2/4/2 14/2/2 16/5/2
f 1/1/3 13/3/3 18/6/3
f 1/1/4 18/6/4 20/7/4
f 1/1/5 20/7/5 17/8/5
f 2/4/6 16/5/6 23/9/6
f 3/10/7 15/11/7 25/12/7
f 4/13/8 19/14/8 27/15/8
f 5/16/9 21/17/9 29/18/9
f 6/19/10 22/20/10 31/21/10
f 2/4/11 23/9/11 26/22/11
f 3/10/12 25/12/12 28/23/12
f 4/13/13 27/15/13 30/24/13
f 5/16/14 29/18/14 32/25/14
f 6/19/15 31/21/15 24/26/15
f 7/27/16 33/28/16 38/29/16
f 8/30/17 34/31/17 40/32/17
f 9/33/18 35/34/18 41/35/18
f 10/36/19 36/37/19 42/38/19
f 11/39/20 37/40/20 39/41/20
f 39/41/21 42/38/21 12/42/21
f 39/41/22 37/40/22 42/38/22
f 37/40/23 10/36/23 42/38/23
f 42/38/24 41/35/24 12/42/24
f 42/38/25 36/37/25 41/35/25
f 36/37/26 9/33/26 41/35/26
f 41/35/27 40/32/27 12/42/27
f 41/35/28 35/34/28 40/32/28
f 35/34/29 8/30/29 40/32/29
f 40/32/30 38/29/30 12/42/30
f 40/32/31 34/31/31 38/29/31
f 34/31/32 7/27/32 38/29/32
f 38/29/33 39/41/33 12/42/33
f 38/29/34 33/28/34 39/41/34
f 33/28/35 11/39/35 39/41/35
f 24/26/36 37/40/36 11/39/36
f 24/26/37 31/21/37 37/40/37
f 31/21/38 10/43/38 37/40/38
f 32/25/39 36/44/39 10/43/39
f 32/25/40 29/18/40 36/44/40
f 29/18/41 9/45/41 36/44/41
f 30/24/42 35/34/42 9/45/42
f 30/24/43 27/15/43 35/34/43
f 27/15/44 8/30/44 35/34/44
f 28/23/45 34/31/45 8/30/45
f 28/23/46 25/12/46 34/31/46
f 25/12/47 7/27/47 34/31/47
f 26/22/48 33/28/48 7/27/48
f 26/22/49 23/9/49 33/28/49
f 23/9/50 11/39/50 33/28/50
f 31/21/51 32/25/51 10/43/51
f 31/21/52 22/20/52 32/25/52
f 22/20/53 5/16/53 32/25/53
f 29/18/54 30/24/54 9/45/54
f 29/18/55 21/17/55 30/24/55
f 21/17/56 4/13/56 30/24/56
f 27/15/57 28/23/57 8/30/57
f 27/15/58 19/14/58 28/23/58
f 19/14/59 3/10/59 28/23/59
f 25/12/60 26/22/60 7/27/60
f 25/12/61 15/11/61 26/22/61
f 15/11/62 2/4/62 26/22/62
f 23/9/63 24/26/63 11/39/63
f 23/9/64 16/5/64 24/26/64
f 16/5/65 6/19/65 24/26/65
f 17/8/66 22/46/66 6/19/66
f 17/8/67 20/7/67 22/46/67
f 20/7/68 5/47/68 22/46/68
f 20/7/69 21/48/69 5/47/69
f 20/7/70 18/6/70 21/48/70
f 18/6/71 4/13/71 21/48/71
f 18/6/72 19/14/72 4/13/72
f 18/6/73 13/3/73 19/14/73
f 13/3/74 3/10/74 19/14/74
f 16/5/75 17/8/75 6/19/75
f 16/5/76 14/2/76 17/8/76
f 14/2/77 1/1/77 17/8/77
f 13/3/78 15/11/78 3/10/78
f 13/3/79 14/2/79 15/11/79
f 14/2/80 2/4/80 15/11/80
f 10/49/81 43/50/81 44/51/81
f 36/52/82 46/53/82 45/54/82
f 36/55/83 9/56/83 47/57/83
f 9/58/84 35/59/84 50/60/84
f 22/61/85 52/62/85 51/63/85
f 5/64/86 53/65/86 54/66/86
f 5/67/87 21/68/87 56/69/87
f 4/70/88 57/71/88 58/72/88
f 83/73/23 91/74/23 88/75/23
f 85/73/22 83/74/22 88/75/22
f 85/73/21 88/74/21 89/75/21
f 82/73/26 92/74/26 87/75/26
f 88/73/25 82/74/25 87/75/25
f 88/73/24 87/74/24 89/75/24
f 81/73/29 93/74/29 86/75/29
f 87/73/28 81/74/28 86/75/28
f 87/73/27 86/74/27 89/75/27
f 80/73/32 94/74/32 84/75/32
f 86/73/31 80/74/31 84/75/31
f 86/73/30 84/74/30 89/75/30
f 79/73/35 90/74/35 85/75/35
f 84/73/34 79/74/34 85/75/34
f 84/73/33 85/74/33 89/75/33
f 77/73/89 91/74/89 83/75/89
f 70/73/90 77/74/90 83/75/90
f 70/73/36 83/74/36 90/75/36
f 75/73/91 92/74/91 82/75/91
f 78/73/92 75/74/92 82/75/92
f 78/73/93 82/74/93 91/75/93
f 73/73/44 93/74/44 81/75/44
f 76/73/94 73/74/94 81/75/94
f 76/73/95 81/74/95 92/75/95
f 71/73/47 94/74/47 80/75/47
f 74/73/46 71/74/46 80/75/46
f 74/73/45 80/74/45 93/75/45
f 69/73/50 90/74/50 79/75/50
f 72/73/49 69/74/49 79/75/49
f 72/73/48 79/74/48 94/75/48
f 68/73/96 96/74/96 78/75/96
f 77/73/97 68/74/97 78/75/97
f 77/73/98 78/74/98 91/75/98
f 67/73/99 97/74/99 76/75/99
f 75/73/100 67/74/100 76/75/100
f 75/73/101 76/74/101 92/75/101
f 65/73/59 98/74/59 74/75/59
f 73/73/58 65/74/58 74/75/58
f 73/73/57 74/74/57 93/75/57
f 61/73/62 99/74/62 72/75/62
f 71/73/61 61/74/61 72/75/61
f 71/73/60 72/74/60 94/75/60
f 62/73/65 95/74/65 70/75/65
f 69/73/64 62/74/64 70/75/64
f 69/73/102 70/74/102 90/75/102
f 66/73/68 96/74/68 68/75/68
f 63/73/67 66/74/67 68/75/67
f 63/73/66 68/74/66 95/75/66
f 64/73/71 97/74/71 67/75/71
f 66/73/70 64/74/70 67/75/70
f 66/73/69 67/74/69 96/75/69
f 59/73/74 98/74/74 65/75/74
f 64/73/73 59/74/73 65/75/73
f 64/73/72 65/74/72 97/75/72
f 60/73/77 100/74/77 63/75/77
f 62/73/76 60/74/76 63/75/76
f 62/73/75 63/74/75 95/75/75
f 60/73/80 99/74/80 61/75/80
f 59/73/79 60/74/79 61/75/79
f 59/73/78 61/74/78 98/75/78
f 90/73/20 83/74/20 85/75/20
f 91/73/19 82/74/19 88/75/19
f 92/73/103 81/74/103 87/75/103
f 93/73/17 80/74/17 86/75/17
f 94/73/16 79/74/16 84/75/16
f 95/73/104 77/74/104 70/75/104
f 96/73/105 75/74/105 78/75/105
f 97/73/106 73/74/106 76/75/106
f 98/73/12 71/74/12 74/75/12
f 99/73/107 69/74/107 72/75/107
f 95/73/108 68/74/108 77/75/108
f 96/73/109 67/74/109 75/75/109
f 97/73/8 65/74/8 73/75/8
f 98/73/7 61/74/7 71/75/7
f 99/73/6 62/74/6 69/75/6
f 100/73/5 66/74/5 63/75/5
f 100/73/4 64/74/4 66/75/4
f 100/73/3 59/74/3 64/75/3
f 99/73/110 60/74/110 62/75/110
f 100/73/1 60/74/1 59/75/1
f 101/73/1 114/74/1 113/75/1
f 102/73/2 114/74/2 116/75/2
f 101/73/3 113/74/3 118/75/3
f 101/73/4 118/74/4 120/75/4
f 101/73/5 120/74/5 117/75/5
f 102/73/6 116/74/6 123/75/6
f 103/73/7 115/74/7 125/75/7
f 104/73/8 119/74/8 127/75/8
f 105/73/109 121/74/109 129/75/109
f 106/73/108 122/74/108 131/75/108
f 102/73/11 123/74/11 126/75/11
f 103/73/12 125/74/12 128/75/12
f 104/73/106 127/74/106 130/75/106
f 105/73/105 129/74/105 132/75/105
f 106/73/104 131/74/104 124/75/104
f 107/73/16 133/74/16 138/75/16
f 108/73/17 134/74/17 140/75/17
f 109/73/103 135/74/103 141/75/103
f 110/73/19 136/74/19 142/75/19
f 111/73/20 137/74/20 139/75/20
f 139/73/21 142/74/21 112/75/21
f 139/73/22 137/74/22 142/75/22
f 137/73/23 110/74/23 142/75/23
f 142/73/24 141/74/24 112/75/24
f 142/73/25 136/74/25 141/75/25
f 136/73/26 109/74/26 141/75/26
f 141/73/111 140/74/111 112/75/111
f 141/73/28 135/74/28 140/75/28
f 135/73/29 108/74/29 140/75/29
f 140/73/30 138/74/30 112/75/30
f 140/73/31 134/74/31 138/75/31
f 134/73/32 107/74/32 138/75/32
f 138/73/33 139/74/33 112/75/33
f 138/73/34 133/74/34 139/75/34
f 133/73/35 111/74/35 139/75/35
f 124/73/36 137/74/36 111/75/36
f 124/73/90 131/74/90 137/75/90
f 131/73/89 110/74/89 137/75/89
f 132/73/93 136/74/93 110/75/93
f 132/73/92 129/74/92 136/75/92
f 129/73/91 109/74/91 136/75/91
f 130/73/95 135/74/95 109/75/95
f 130/73/94 127/74/94 135/75/94
f 127/73/44 108/74/44 135/75/44
f 128/73/45 134/74/45 108/75/45
f 128/73/46 125/74/46 134/75/46
f 125/73/47 107/74/47 134/75/47
f 126/73/48 133/74/48 107/75/48
f 126/73/49 123/74/49 133/75/49
f 123/73/50 111/74/50 133/75/50
f 131/73/98 132/74/98 110/75/98
f 131/73/97 122/74/97 132/75/97
f 122/73/96 105/74/96 132/75/96
f 129/73/112 130/74/112 109/75/112
f 129/73/100 121/74/100 130/75/100
f 121/73/99 104/74/99 130/75/99
f 127/73/57 128/74/57 108/75/57
f 127/73/58 119/74/58 128/75/58
f 119/73/59 103/74/59 128/75/59
f 125/73/60 126/74/60 107/75/60
f 125/73/61 115/74/61 126/75/61
f 115/73/62 102/74/62 126/75/62
f 123/73/63 124/74/63 111/75/63
f 123/73/64 116/74/64 124/75/64
f 116/73/65 106/74/65 124/75/65
f 117/73/66 122/74/66 106/75/66
f 117/73/67 120/74/67 122/75/67
f 120/73/68 105/74/68 122/75/68
f 120/73/69 121/74/69 105/75/69
f 120/73/70 118/74/70 121/75/70
f 118/73/71 104/74/71 121/75/71
f 118/73/72 119/74/72 104/75/72
f 118/73/73 113/74/73 119/75/73
f 113/73/74 103/74/74 119/75/74
f 116/73/75 117/74/75 106/75/75
f 116/73/76 114/74/76 117/75/76
f 114/73/77 101/74/77 117/75/77
f 113/73/78 115/74/78 103/75/78
f 113/73/79 114/74/79 115/75/79
f 114/73/80 102/74/80 115/75/80
f 37/76/81 10/49/81 44/51/81
f 10/77/82 36/52/82 45/54/82
f 48/78/83 36/55/83 47/57/83
f 49/79/84 9/58/84 50/60/84
f 6/80/85 22/61/85 51/63/85
f 22/81/86 5/64/86 54/66/86
f 55/82/87 5/67/87 56/69/87
f 21/83/88 4/70/88 58/72/88
