# Blender v2.73 (sub 0) OBJ File: 'Mountain1.blend'
# www.blender.org
mtllib Trees.mtl
v -0.024928 0.479761 0.130676
v -0.011016 0.411559 0.130964
v -0.003862 0.493752 0.112885
v -0.029229 0.443290 0.117777
v 0.009002 0.403566 0.124132
v -0.006721 0.429419 0.096743
v -0.010490 0.464002 0.094410
v 0.019452 0.478346 0.091377
v 0.019525 0.445128 0.085781
v 0.026827 0.418900 0.098383
v 0.040089 0.408259 0.119220
v 0.040761 0.454550 0.088946
v 0.040621 0.487114 0.105495
v 0.057863 0.454433 0.102104
v 0.061649 0.480155 0.128731
v 0.065816 0.439876 0.121959
v 0.066599 0.464727 0.152259
v 0.056136 0.418675 0.143833
v 0.036853 0.500339 0.132727
v 0.036360 0.472025 0.180012
v 0.054068 0.437054 0.170296
v 0.027684 0.497525 0.160972
v 0.026628 0.407203 0.159782
v 0.000703 0.476053 0.178466
v 0.017018 0.440891 0.185934
v 0.000987 0.410737 0.161037
v -0.012295 0.451098 0.177554
v 0.018800 0.502480 0.122473
v -0.004317 0.497852 0.147139
v -0.030954 0.462735 0.150262
v -0.025724 0.430373 0.149730
v 0.014054 -0.012339 -0.108988
v 0.009640 0.411579 -0.066573
v 0.059152 -0.012260 -0.087397
v 0.027680 0.411611 -0.057937
v 0.063016 -0.013667 -0.037567
v 0.029225 0.411048 -0.038004
v 0.021781 -0.015153 -0.009327
v 0.012731 0.410453 -0.026708
v -0.023317 -0.015232 -0.030918
v -0.005308 0.410422 -0.035345
v -0.027180 -0.013825 -0.080748
v -0.006854 0.410985 -0.055277
v 0.211512 0.477434 0.136809
v 0.267025 0.499511 -0.192162
v 0.065177 0.695218 0.178211
v -0.158783 0.695687 0.041787
v -0.098304 0.704161 -0.213242
v 0.298875 0.633241 -0.023274
v -0.033851 0.819812 -0.034424
v 0.095217 0.307286 -0.091375
v -0.026799 0.328063 0.012908
v -0.032901 0.416300 -0.257329
v 0.032721 0.503594 0.201407
v -0.209164 0.524658 -0.029167
v -0.100084 0.484285 0.148512
v -0.050245 0.562743 -0.289455
v 0.170354 0.751212 0.096909
v 0.217158 0.758268 -0.117388
v 0.090981 0.751846 -0.227638
v -0.139573 0.757772 -0.084380
v -0.125661 0.689569 -0.084093
v -0.118507 0.771762 -0.102171
v -0.143874 0.721300 -0.097280
v -0.105643 0.681576 -0.090925
v -0.121366 0.707429 -0.118314
v -0.125135 0.742012 -0.120646
v -0.095193 0.756356 -0.123680
v -0.095120 0.723139 -0.129276
v -0.087818 0.696911 -0.116674
v -0.074556 0.686270 -0.095837
v -0.073884 0.732560 -0.126111
v -0.074024 0.765125 -0.109562
v -0.056782 0.732444 -0.112952
v -0.052996 0.758165 -0.086326
v -0.048829 0.717886 -0.093098
v -0.048046 0.742737 -0.062798
v -0.058509 0.696686 -0.071224
v -0.077792 0.778349 -0.082329
v -0.078286 0.750035 -0.035044
v -0.060578 0.715065 -0.044761
v -0.086961 0.775535 -0.054085
v -0.088017 0.685213 -0.055275
v -0.113942 0.754064 -0.036590
v -0.097627 0.718901 -0.029123
v -0.113658 0.688747 -0.054020
v -0.126940 0.729108 -0.037502
v -0.095846 0.780490 -0.092584
v -0.118962 0.775862 -0.067918
v -0.145599 0.740745 -0.064794
v -0.140369 0.708383 -0.065327
v 0.215489 0.618747 -0.133471
v 0.229401 0.550545 -0.133184
v 0.236556 0.632738 -0.151262
v 0.211189 0.582276 -0.146370
v 0.249419 0.542552 -0.140015
v 0.233697 0.568405 -0.167404
v 0.229928 0.602988 -0.169737
v 0.259870 0.617332 -0.172771
v 0.259942 0.584114 -0.178366
v 0.267244 0.557886 -0.165764
v 0.280506 0.547245 -0.144927
v 0.281179 0.593536 -0.175201
v 0.281039 0.626100 -0.158652
v 0.298280 0.593419 -0.162043
v 0.302066 0.619141 -0.135416
v 0.306233 0.578862 -0.142188
v 0.307017 0.603713 -0.111888
v 0.296553 0.557661 -0.120314
v 0.277270 0.639325 -0.131420
v 0.276777 0.611011 -0.084135
v 0.294485 0.576040 -0.093851
v 0.268101 0.636511 -0.103175
v 0.267045 0.546189 -0.104365
v 0.241120 0.615039 -0.085681
v 0.257436 0.579877 -0.078213
v 0.241404 0.549723 -0.103110
v 0.228122 0.590084 -0.086593
v 0.259217 0.641466 -0.141674
v 0.236101 0.636838 -0.117008
v 0.209463 0.601721 -0.113885
v 0.214693 0.569359 -0.114418
v -0.065223 0.614588 -0.267360
v -0.051311 0.546386 -0.267073
v -0.044157 0.628578 -0.285151
v -0.069524 0.578117 -0.280259
v -0.031293 0.538393 -0.273904
v -0.047016 0.564245 -0.301293
v -0.050785 0.598828 -0.303626
v -0.020843 0.613173 -0.306660
v -0.020770 0.579955 -0.312255
v -0.013468 0.553727 -0.299653
v -0.000206 0.543086 -0.278816
v 0.000466 0.589377 -0.309090
v 0.000326 0.621941 -0.292541
v 0.017568 0.589260 -0.295932
v 0.021354 0.614982 -0.269305
v 0.025521 0.574703 -0.276077
v 0.026304 0.599553 -0.245777
v 0.015841 0.553502 -0.254203
v -0.003442 0.635166 -0.265309
v -0.003936 0.606852 -0.218024
v 0.013772 0.571881 -0.227740
v -0.012611 0.632351 -0.237064
v -0.013667 0.542030 -0.238254
v -0.039592 0.610880 -0.219570
v -0.023277 0.575718 -0.212102
v -0.039308 0.545564 -0.236999
v -0.052590 0.585925 -0.220482
v -0.021496 0.637307 -0.275563
v -0.044612 0.632678 -0.250897
v -0.071249 0.597561 -0.247774
v -0.066019 0.565199 -0.248307
vn 0.764900 -0.638400 0.086200
vn 0.915600 -0.380900 0.128900
vn -0.358200 0.723100 0.590600
vn -0.742200 0.652200 -0.154300
vn 0.157200 0.959000 -0.235800
vn -0.249600 0.851700 -0.460800
vn -0.049700 0.851500 0.522100
vn 0.265000 0.960100 0.089500
vn 0.752900 0.631500 0.185200
vn 0.877600 0.281300 -0.388200
vn 0.612500 0.326100 -0.720000
vn -0.173700 0.420800 -0.890400
vn -0.912700 0.353800 -0.204700
vn -0.499600 0.275800 0.821200
vn -0.386200 0.175000 0.905700
vn 0.530400 0.199800 0.823800
vn 0.762000 0.204100 0.614500
vn 0.306900 0.080800 -0.948300
vn 0.255900 -0.178100 -0.950200
vn -0.852900 -0.008500 -0.522000
vn -0.819600 -0.213700 -0.531700
vn -0.848700 0.030900 0.528000
vn 0.346400 0.054700 0.936500
vn 0.329300 -0.652300 -0.682700
vn -0.387500 -0.878900 -0.278200
vn -0.694200 -0.688700 -0.209200
vn -0.729300 -0.610400 0.309000
vn -0.178300 -0.691400 0.700100
vn 0.127200 -0.745600 0.654100
vn 0.270900 -0.832700 0.482900
vn 0.429800 0.094300 -0.898000
vn 0.994100 0.079000 -0.074800
vn 0.563300 0.045700 0.825000
vn -0.431700 0.027600 0.901600
vn -0.015800 0.999400 0.029500
vn -0.565300 0.076300 -0.821400
vn -0.996000 0.043000 0.078400
vn 0.015800 -0.999400 -0.029500
vn -0.015800 0.999400 0.029400
vn -0.313500 0.942400 -0.117000
vn -0.837700 -0.532000 -0.123200
vn -0.986100 -0.160100 0.043400
vn -0.719100 -0.574900 -0.390300
vn -0.459800 -0.762300 -0.455500
vn -0.852700 0.260700 -0.452800
vn -0.176500 0.163100 -0.970700
vn -0.340600 0.549600 -0.762800
vn -0.044400 0.788800 -0.613100
vn -0.211400 -0.768400 -0.604000
vn -0.098800 -0.453200 -0.885900
vn -0.332200 -0.099500 -0.937900
vn 0.287600 -0.348600 -0.892100
vn 0.317900 0.869400 -0.378200
vn 0.554800 -0.408700 -0.724700
vn 0.727800 0.438600 -0.527200
vn 0.643400 -0.471300 -0.603300
vn 0.762500 -0.599400 -0.243500
vn 0.951700 -0.249100 0.179700
vn 0.984300 0.123100 -0.126400
vn 0.651900 0.689700 0.315100
vn 0.688000 0.151100 0.709800
vn -0.020000 0.198800 0.979800
vn -0.244000 0.091800 0.965400
vn -0.242800 0.777600 0.580000
vn -0.387700 -0.455500 0.801400
vn -0.612000 -0.463600 0.640700
vn -0.844500 -0.145000 0.515600
vn 0.153100 -0.987900 0.025100
vn 0.051900 0.991900 0.115700
vn -0.049900 0.989100 0.138800
vn -0.336400 -0.935400 0.108700
vn -0.608800 0.786700 -0.102200
vn -0.973700 0.168900 -0.152800
vn -0.730500 0.470300 -0.495200
vn -0.717300 -0.124400 -0.685500
vn 0.055800 -0.874400 -0.482100
vn 0.073000 0.165800 -0.983400
vn 0.376100 0.421100 -0.825400
vn 0.080400 0.788300 -0.610100
vn 0.566900 0.375200 -0.733400
vn 0.615200 -0.471100 -0.632100
vn 0.950600 0.144500 -0.274800
vn 0.575200 0.764300 -0.291600
vn 0.932700 -0.258000 0.252100
vn 0.633000 0.722700 0.277500
vn 0.412700 -0.903800 0.113400
vn 0.536800 -0.672800 0.509200
vn 0.616700 0.594800 0.515600
vn 0.382600 -0.062400 0.921800
vn 0.280000 -0.537600 0.795400
vn -0.047300 -0.620900 0.782500
vn 0.033900 0.605300 0.795200
vn -0.126900 -0.978500 0.162600
vn -0.701200 0.342400 0.625400
vn -0.671700 0.553300 0.492600
vn -0.638300 -0.733100 0.234700
vn -0.750900 0.595100 0.286300
vn 0.536800 -0.672700 0.509200
usemtl Leaves
s off
f 44//1 51//1 45//1
f 44//2 45//2 49//2
f 47//3 46//3 50//3
f 48//4 47//4 50//4
f 59//5 60//5 50//5
f 60//6 48//6 50//6
f 50//7 46//7 58//7
f 58//8 59//8 50//8
f 58//9 49//9 59//9
f 45//10 59//10 49//10
f 45//11 60//11 59//11
f 57//12 48//12 60//12
f 55//13 47//13 48//13
f 56//14 46//14 47//14
f 56//15 54//15 46//15
f 44//16 58//16 46//16
f 44//17 49//17 58//17
f 45//18 57//18 60//18
f 45//19 53//19 57//19
f 57//20 55//20 48//20
f 57//21 53//21 55//21
f 55//22 56//22 47//22
f 54//23 44//23 46//23
f 51//24 53//24 45//24
f 51//25 52//25 53//25
f 52//26 55//26 53//26
f 52//27 56//27 55//27
f 52//28 54//28 56//28
f 52//29 44//29 54//29
f 52//30 51//30 44//30
usemtl Trunk
f 33//31 35//31 34//31
f 35//32 37//32 36//32
f 36//33 37//33 39//33
f 39//34 41//34 40//34
f 37//35 33//35 39//35
f 43//36 33//36 32//36
f 41//37 43//37 42//37
f 32//38 36//38 38//38
f 32//31 33//31 34//31
f 34//32 35//32 36//32
f 38//33 36//33 39//33
f 38//34 39//34 40//34
f 33//39 37//39 35//39
f 43//35 41//35 39//35
f 39//35 33//35 43//35
f 42//36 43//36 32//36
f 40//37 41//37 42//37
f 40//38 42//38 32//38
f 32//38 38//38 40//38
f 32//38 34//38 36//38
usemtl Material
f 29//40 28//40 3//40
f 31//41 4//41 2//41
f 31//42 30//42 4//42
f 2//43 4//43 6//43
f 2//44 6//44 5//44
f 4//45 1//45 7//45
f 7//46 8//46 9//46
f 7//47 3//47 8//47
f 3//48 28//48 8//48
f 5//49 6//49 10//49
f 6//50 9//50 10//50
f 6//51 7//51 9//51
f 10//52 9//52 12//52
f 28//53 19//53 13//53
f 10//54 12//54 14//54
f 14//55 13//55 15//55
f 11//56 14//56 16//56
f 11//57 16//57 18//57
f 16//58 17//58 18//58
f 16//59 15//59 17//59
f 15//60 22//60 17//60
f 21//61 17//61 20//61
f 25//62 20//62 24//62
f 25//63 24//63 27//63
f 22//64 29//64 24//64
f 26//65 25//65 27//65
f 26//66 27//66 31//66
f 27//67 30//67 31//67
f 5//68 11//68 23//68
f 19//69 28//69 22//69
f 22//70 28//70 29//70
f 26//71 2//71 5//71
f 1//72 29//72 3//72
f 4//73 30//73 1//73
f 7//74 1//74 3//74
f 6//75 4//75 7//75
f 11//76 5//76 10//76
f 9//77 8//77 12//77
f 12//78 8//78 13//78
f 8//79 28//79 13//79
f 14//80 12//80 13//80
f 11//81 10//81 14//81
f 16//82 14//82 15//82
f 13//83 19//83 15//83
f 18//84 17//84 21//84
f 15//85 19//85 22//85
f 11//86 18//86 23//86
f 18//87 21//87 23//87
f 20//88 17//88 22//88
f 25//89 21//89 20//89
f 23//90 21//90 25//90
f 26//91 23//91 25//91
f 24//92 20//92 22//92
f 5//93 23//93 26//93
f 27//94 24//94 30//94
f 30//95 24//95 29//95
f 26//96 31//96 2//96
f 1//97 30//97 29//97
usemtl Material.001
f 89//40 88//40 63//40
f 91//41 64//41 62//41
f 91//42 90//42 64//42
f 62//43 64//43 66//43
f 62//44 66//44 65//44
f 64//45 61//45 67//45
f 67//46 68//46 69//46
f 67//47 63//47 68//47
f 63//48 88//48 68//48
f 65//49 66//49 70//49
f 66//50 69//50 70//50
f 66//51 67//51 69//51
f 70//52 69//52 72//52
f 88//53 79//53 73//53
f 70//54 72//54 74//54
f 74//55 73//55 75//55
f 71//56 74//56 76//56
f 71//57 76//57 78//57
f 76//58 77//58 78//58
f 76//59 75//59 77//59
f 75//60 82//60 77//60
f 81//61 77//61 80//61
f 85//62 80//62 84//62
f 85//63 84//63 87//63
f 82//64 89//64 84//64
f 86//65 85//65 87//65
f 86//66 87//66 91//66
f 87//67 90//67 91//67
f 65//68 71//68 83//68
f 79//69 88//69 82//69
f 82//70 88//70 89//70
f 86//71 62//71 65//71
f 61//72 89//72 63//72
f 64//73 90//73 61//73
f 67//74 61//74 63//74
f 66//75 64//75 67//75
f 71//76 65//76 70//76
f 69//77 68//77 72//77
f 72//78 68//78 73//78
f 68//79 88//79 73//79
f 74//80 72//80 73//80
f 71//81 70//81 74//81
f 76//82 74//82 75//82
f 73//83 79//83 75//83
f 78//84 77//84 81//84
f 75//85 79//85 82//85
f 71//86 78//86 83//86
f 78//87 81//87 83//87
f 80//88 77//88 82//88
f 85//89 81//89 80//89
f 83//90 81//90 85//90
f 86//91 83//91 85//91
f 84//92 80//92 82//92
f 65//93 83//93 86//93
f 87//94 84//94 90//94
f 90//95 84//95 89//95
f 86//96 91//96 62//96
f 61//97 90//97 89//97
usemtl Material.002
f 120//40 119//40 94//40
f 122//41 95//41 93//41
f 122//42 121//42 95//42
f 93//43 95//43 97//43
f 93//44 97//44 96//44
f 95//45 92//45 98//45
f 98//46 99//46 100//46
f 98//47 94//47 99//47
f 94//48 119//48 99//48
f 96//49 97//49 101//49
f 97//50 100//50 101//50
f 97//51 98//51 100//51
f 101//52 100//52 103//52
f 119//53 110//53 104//53
f 101//54 103//54 105//54
f 105//55 104//55 106//55
f 102//56 105//56 107//56
f 102//57 107//57 109//57
f 107//58 108//58 109//58
f 107//59 106//59 108//59
f 106//60 113//60 108//60
f 112//61 108//61 111//61
f 116//62 111//62 115//62
f 116//63 115//63 118//63
f 113//64 120//64 115//64
f 117//65 116//65 118//65
f 117//66 118//66 122//66
f 118//67 121//67 122//67
f 96//68 102//68 114//68
f 110//69 119//69 113//69
f 113//70 119//70 120//70
f 117//71 93//71 96//71
f 92//72 120//72 94//72
f 95//73 121//73 92//73
f 98//74 92//74 94//74
f 97//75 95//75 98//75
f 102//76 96//76 101//76
f 100//77 99//77 103//77
f 103//78 99//78 104//78
f 99//79 119//79 104//79
f 105//80 103//80 104//80
f 102//81 101//81 105//81
f 107//82 105//82 106//82
f 104//83 110//83 106//83
f 109//84 108//84 112//84
f 106//85 110//85 113//85
f 102//86 109//86 114//86
f 109//98 112//98 114//98
f 111//88 108//88 113//88
f 116//89 112//89 111//89
f 114//90 112//90 116//90
f 117//91 114//91 116//91
f 115//92 111//92 113//92
f 96//93 114//93 117//93
f 118//94 115//94 121//94
f 121//95 115//95 120//95
f 117//96 122//96 93//96
f 92//97 121//97 120//97
usemtl Material.003
f 151//40 150//40 125//40
f 153//41 126//41 124//41
f 153//42 152//42 126//42
f 124//43 126//43 128//43
f 124//44 128//44 127//44
f 126//45 123//45 129//45
f 129//46 130//46 131//46
f 129//47 125//47 130//47
f 125//48 150//48 130//48
f 127//49 128//49 132//49
f 128//50 131//50 132//50
f 128//51 129//51 131//51
f 132//52 131//52 134//52
f 150//53 141//53 135//53
f 132//54 134//54 136//54
f 136//55 135//55 137//55
f 133//56 136//56 138//56
f 133//57 138//57 140//57
f 138//58 139//58 140//58
f 138//59 137//59 139//59
f 137//60 144//60 139//60
f 143//61 139//61 142//61
f 147//62 142//62 146//62
f 147//63 146//63 149//63
f 144//64 151//64 146//64
f 148//65 147//65 149//65
f 148//66 149//66 153//66
f 149//67 152//67 153//67
f 127//68 133//68 145//68
f 141//69 150//69 144//69
f 144//70 150//70 151//70
f 148//71 124//71 127//71
f 123//72 151//72 125//72
f 126//73 152//73 123//73
f 129//74 123//74 125//74
f 128//75 126//75 129//75
f 133//76 127//76 132//76
f 131//77 130//77 134//77
f 134//78 130//78 135//78
f 130//79 150//79 135//79
f 136//80 134//80 135//80
f 133//81 132//81 136//81
f 138//82 136//82 137//82
f 135//83 141//83 137//83
f 140//84 139//84 143//84
f 137//85 141//85 144//85
f 133//86 140//86 145//86
f 140//87 143//87 145//87
f 142//88 139//88 144//88
f 147//89 143//89 142//89
f 145//90 143//90 147//90
f 148//91 145//91 147//91
f 146//92 142//92 144//92
f 127//93 145//93 148//93
f 149//94 146//94 152//94
f 152//95 146//95 151//95
f 148//96 153//96 124//96
f 123//97 152//97 151//97
