# Blender v2.73 (sub 0) OBJ File: 'Mountain1.blend'
# www.blender.org
v -0.037938 0.412285 0.214354
v -0.022011 0.344583 0.211529
v -0.017454 0.427667 0.197038
v -0.041272 0.376302 0.199892
v -0.001827 0.337500 0.204199
v -0.018551 0.364046 0.178097
v -0.023363 0.398570 0.177320
v 0.006113 0.413924 0.174694
v 0.007119 0.381001 0.167639
v 0.015306 0.354476 0.179017
v 0.029063 0.343334 0.199263
v 0.028095 0.390907 0.171055
v 0.027138 0.422695 0.189024
v 0.045309 0.390726 0.184065
v 0.048569 0.415357 0.211770
v 0.053866 0.375557 0.203198
v 0.054183 0.399068 0.234557
v 0.045013 0.353137 0.224189
v 0.023223 0.434595 0.216841
v 0.023989 0.404233 0.262834
v 0.042637 0.370268 0.251451
v 0.014393 0.430272 0.245003
v 0.016001 0.340098 0.239840
v -0.011783 0.407255 0.261738
v 0.005631 0.372304 0.267524
v -0.009721 0.342803 0.241445
v -0.024045 0.381986 0.259826
v 0.005023 0.436641 0.206829
v -0.017725 0.430245 0.231441
v -0.043283 0.394243 0.233216
v -0.037102 0.362107 0.231217
v 0.013457 -0.067446 -0.047061
v -0.003125 0.353882 0.014034
v 0.058723 -0.066963 -0.025831
v 0.014981 0.354075 0.022526
v 0.063070 -0.070437 0.023859
v 0.016720 0.352686 0.042402
v 0.022151 -0.074394 0.052318
v 0.000352 0.351103 0.053786
v -0.023116 -0.074877 0.031088
v -0.017754 0.350909 0.045294
v -0.027463 -0.071404 -0.018601
v -0.019493 0.352299 0.025418
v 0.198513 0.416776 0.218582
v 0.250415 0.454907 -0.109509
v 0.046171 0.628053 0.270655
v -0.178912 0.627792 0.136091
v -0.120985 0.649246 -0.118769
v 0.279796 0.581999 0.064863
v -0.058392 0.758826 0.064478
v 0.085277 0.253387 -0.015991
v -0.036367 0.265907 0.090031
v -0.047485 0.365683 -0.175999
v 0.019608 0.434710 0.285626
v -0.224838 0.458605 0.058050
v -0.113032 0.413769 0.232943
v -0.069442 0.512809 -0.201506
v 0.148916 0.690684 0.191104
v 0.193579 0.708527 -0.023024
v 0.066670 0.703167 -0.132488
v -0.162673 0.695896 0.012640
v -0.146746 0.628194 0.009815
v -0.142189 0.711278 -0.004676
v -0.166007 0.659913 -0.001822
v -0.126562 0.621111 0.002485
v -0.143287 0.647657 -0.023617
v -0.148098 0.682181 -0.024394
v -0.118622 0.697535 -0.027020
v -0.117616 0.664612 -0.034075
v -0.109429 0.638087 -0.022698
v -0.095673 0.626945 -0.002451
v -0.096641 0.674518 -0.030659
v -0.097597 0.706306 -0.012690
v -0.079427 0.674337 -0.017649
v -0.076166 0.698968 0.010056
v -0.070870 0.659168 0.001484
v -0.070552 0.682678 0.032843
v -0.079723 0.636748 0.022475
v -0.101513 0.718205 0.015127
v -0.100746 0.687844 0.061120
v -0.082098 0.653879 0.049737
v -0.110342 0.713882 0.043288
v -0.108735 0.623708 0.038126
v -0.136519 0.690866 0.060024
v -0.119104 0.655915 0.065810
v -0.134457 0.626414 0.039730
v -0.148780 0.665596 0.058112
v -0.119712 0.720252 0.005114
v -0.142460 0.713856 0.029727
v -0.168018 0.677854 0.031502
v -0.161837 0.645718 0.029503
v 0.195897 0.569858 -0.045228
v 0.211824 0.502156 -0.048054
v 0.216381 0.585240 -0.062545
v 0.192563 0.533875 -0.059690
v 0.232008 0.495074 -0.055383
v 0.215284 0.521620 -0.081485
v 0.210472 0.556143 -0.082262
v 0.239948 0.571497 -0.084888
v 0.240954 0.538574 -0.091943
v 0.249141 0.512050 -0.080566
v 0.262898 0.500908 -0.060319
v 0.261930 0.548480 -0.088528
v 0.260973 0.580269 -0.070558
v 0.279144 0.548299 -0.075517
v 0.282404 0.572931 -0.047812
v 0.287701 0.533130 -0.056385
v 0.288018 0.556641 -0.025025
v 0.278848 0.510711 -0.035394
v 0.257058 0.592168 -0.042742
v 0.257824 0.561806 0.003252
v 0.276472 0.527842 -0.008132
v 0.248228 0.587845 -0.014580
v 0.249836 0.497671 -0.019742
v 0.222052 0.564828 0.002156
v 0.239467 0.529877 0.007942
v 0.224114 0.500377 -0.018138
v 0.209790 0.539559 0.000243
v 0.238858 0.594215 -0.052754
v 0.216110 0.587819 -0.028141
v 0.190552 0.551817 -0.026366
v 0.196733 0.519680 -0.028365
v -0.085751 0.563163 -0.177033
v -0.069824 0.495461 -0.179859
v -0.065267 0.578545 -0.194350
v -0.089085 0.527180 -0.191495
v -0.049640 0.488379 -0.187188
v -0.066364 0.514925 -0.213290
v -0.071176 0.549448 -0.214067
v -0.041700 0.564803 -0.216693
v -0.040694 0.531879 -0.223749
v -0.032507 0.505355 -0.212371
v -0.018750 0.494213 -0.192125
v -0.019718 0.541785 -0.220333
v -0.020675 0.573574 -0.202363
v -0.002504 0.541604 -0.207322
v 0.000756 0.566236 -0.179617
v 0.006053 0.526435 -0.188190
v 0.006370 0.549946 -0.156830
v -0.002800 0.504016 -0.167199
v -0.024590 0.585473 -0.174547
v -0.023824 0.555111 -0.128553
v -0.005176 0.521147 -0.139937
v -0.033420 0.581150 -0.146385
v -0.031812 0.490976 -0.151548
v -0.059596 0.558133 -0.129649
v -0.042182 0.523182 -0.123863
v -0.057534 0.493682 -0.149943
v -0.071858 0.532864 -0.131562
v -0.042790 0.587520 -0.184559
v -0.065538 0.581124 -0.159946
v -0.091096 0.545122 -0.158172
v -0.084915 0.512985 -0.160170
vn 0.784200 -0.618400 0.052200
vn 0.927600 -0.358600 0.105100
vn -0.374200 0.685500 0.624600
vn -0.762500 0.635800 -0.119800
vn 0.126600 0.972700 -0.194500
vn -0.278800 0.863200 -0.420900
vn -0.070300 0.825900 0.559500
vn 0.237200 0.962800 0.129700
vn 0.735500 0.645100 0.207200
vn 0.865400 0.324200 -0.382100
vn 0.596200 0.375600 -0.709600
vn -0.194000 0.454000 -0.869600
vn -0.924500 0.334900 -0.181900
vn -0.500200 0.224500 0.836300
vn -0.383100 0.123500 0.915400
vn 0.531600 0.179300 0.827800
vn 0.761100 0.199700 0.617100
vn 0.295900 0.131400 -0.946100
vn 0.252600 -0.128600 -0.959000
vn -0.856900 -0.011200 -0.515400
vn -0.817600 -0.214600 -0.534300
vn -0.844500 -0.017700 0.535300
vn 0.352900 0.023900 0.935300
vn 0.342400 -0.611600 -0.713300
vn -0.363700 -0.877100 -0.313800
vn -0.675300 -0.699400 -0.234100
vn -0.708200 -0.644900 0.287400
vn -0.151500 -0.726400 0.670300
vn 0.155100 -0.769400 0.619600
vn 0.299700 -0.844600 0.443600
vn 0.418800 0.146400 -0.896200
vn 0.990600 0.112000 -0.078800
vn 0.569100 0.026300 0.821900
vn -0.424300 -0.024900 0.905200
vn -0.045200 0.996300 0.073600
vn -0.574600 0.095300 -0.812900
vn -0.996100 0.009600 0.087800
vn 0.045200 -0.996300 -0.073600
vn -0.342300 0.936800 -0.072900
vn -0.822700 -0.551000 -0.140200
vn -0.980600 -0.191300 0.043800
vn -0.705200 -0.578600 -0.409800
vn -0.441100 -0.755000 -0.485200
vn -0.864000 0.254600 -0.434300
vn -0.189900 0.200200 -0.961200
vn -0.363500 0.572100 -0.735300
vn -0.073200 0.813200 -0.577400
vn -0.193900 -0.747200 -0.635700
vn -0.093200 -0.416700 -0.904300
vn -0.337500 -0.068200 -0.938900
vn 0.289800 -0.300300 -0.908700
vn 0.288700 0.894300 -0.341900
vn 0.560200 -0.359700 -0.746200
vn 0.709700 0.482900 -0.512900
vn 0.651700 -0.424900 -0.628300
vn 0.777700 -0.565000 -0.275500
vn 0.960200 -0.228100 0.161300
vn 0.979100 0.157900 -0.128300
vn 0.634000 0.694500 0.340300
vn 0.689500 0.140400 0.710600
vn -0.017200 0.155000 0.987800
vn -0.238000 0.042000 0.970400
vn -0.260500 0.743800 0.615500
vn -0.366900 -0.501600 0.783400
vn -0.592300 -0.509400 0.624300
vn -0.835200 -0.192700 0.515100
vn 0.182500 -0.983000 -0.019700
vn 0.023600 0.987000 0.158900
vn -0.077900 0.980100 0.182700
vn -0.307600 -0.948900 0.069900
vn -0.632700 0.771800 -0.062800
vn -0.979600 0.146100 -0.137800
vn -0.748500 0.469400 -0.468400
vn -0.719400 -0.115700 -0.684900
vn 0.077400 -0.850300 -0.520500
vn 0.059300 0.210900 -0.975700
vn 0.356100 0.467900 -0.808900
vn 0.051600 0.816300 -0.575300
vn 0.549000 0.423800 -0.720400
vn 0.623200 -0.424300 -0.657000
vn 0.943400 0.184900 -0.275400
vn 0.549700 0.793300 -0.262000
vn 0.942100 -0.240800 0.233400
vn 0.613800 0.728500 0.304300
vn 0.440300 -0.895100 0.070300
vn 0.561000 -0.678000 0.474900
vn 0.603400 0.589900 0.536600
vn 0.392500 -0.091200 0.915200
vn 0.302900 -0.563300 0.768700
vn -0.021900 -0.655700 0.754700
vn 0.023100 0.570600 0.820900
vn -0.096400 -0.988100 0.120200
vn -0.705400 0.293500 0.645200
vn -0.683300 0.510800 0.521600
vn -0.614200 -0.761500 0.207000
vn -0.765600 0.559200 0.317900
vn 0.549000 0.423800 -0.720500
vn 0.440200 -0.895100 0.070300
vn -0.980500 -0.191300 0.043800
s off
f 44//1 51//1 45//1
f 44//2 45//2 49//2
f 47//3 46//3 50//3
f 48//4 47//4 50//4
f 59//5 60//5 50//5
f 60//6 48//6 50//6
f 50//7 46//7 58//7
f 58//8 59//8 50//8
f 58//9 49//9 59//9
f 45//10 59//10 49//10
f 45//11 60//11 59//11
f 57//12 48//12 60//12
f 55//13 47//13 48//13
f 56//14 46//14 47//14
f 56//15 54//15 46//15
f 44//16 58//16 46//16
f 44//17 49//17 58//17
f 45//18 57//18 60//18
f 45//19 53//19 57//19
f 57//20 55//20 48//20
f 57//21 53//21 55//21
f 55//22 56//22 47//22
f 54//23 44//23 46//23
f 51//24 53//24 45//24
f 51//25 52//25 53//25
f 52//26 55//26 53//26
f 52//27 56//27 55//27
f 52//28 54//28 56//28
f 52//29 44//29 54//29
f 52//30 51//30 44//30
f 33//31 35//31 34//31
f 35//32 37//32 36//32
f 37//33 39//33 38//33
f 39//34 41//34 40//34
f 35//35 43//35 41//35
f 43//36 33//36 32//36
f 40//37 41//37 43//37
f 32//38 36//38 38//38
f 32//31 33//31 34//31
f 34//32 35//32 36//32
f 36//33 37//33 38//33
f 38//34 39//34 40//34
f 41//35 37//35 35//35
f 37//35 41//35 39//35
f 35//35 33//35 43//35
f 42//36 43//36 32//36
f 42//37 40//37 43//37
f 40//38 42//38 32//38
f 32//38 38//38 40//38
f 32//38 34//38 36//38
f 29//39 28//39 3//39
f 31//40 4//40 2//40
f 31//41 30//41 4//41
f 2//42 4//42 6//42
f 2//43 6//43 5//43
f 4//44 1//44 7//44
f 7//45 8//45 9//45
f 7//46 3//46 8//46
f 3//47 28//47 8//47
f 5//48 6//48 10//48
f 6//49 9//49 10//49
f 6//50 7//50 9//50
f 10//51 9//51 12//51
f 28//52 19//52 13//52
f 10//53 12//53 14//53
f 14//54 13//54 15//54
f 11//55 14//55 16//55
f 11//56 16//56 18//56
f 16//57 17//57 18//57
f 16//58 15//58 17//58
f 15//59 22//59 17//59
f 21//60 17//60 20//60
f 25//61 20//61 24//61
f 25//62 24//62 27//62
f 22//63 29//63 24//63
f 26//64 25//64 27//64
f 26//65 27//65 31//65
f 27//66 30//66 31//66
f 5//67 11//67 23//67
f 19//68 28//68 22//68
f 22//69 28//69 29//69
f 26//70 2//70 5//70
f 1//71 29//71 3//71
f 4//72 30//72 1//72
f 7//73 1//73 3//73
f 6//74 4//74 7//74
f 11//75 5//75 10//75
f 9//76 8//76 12//76
f 12//77 8//77 13//77
f 8//78 28//78 13//78
f 14//79 12//79 13//79
f 11//80 10//80 14//80
f 16//81 14//81 15//81
f 13//82 19//82 15//82
f 18//83 17//83 21//83
f 15//84 19//84 22//84
f 11//85 18//85 23//85
f 18//86 21//86 23//86
f 20//87 17//87 22//87
f 25//88 21//88 20//88
f 23//89 21//89 25//89
f 26//90 23//90 25//90
f 24//91 20//91 22//91
f 5//92 23//92 26//92
f 27//93 24//93 30//93
f 30//94 24//94 29//94
f 26//95 31//95 2//95
f 1//96 30//96 29//96
f 89//39 88//39 63//39
f 91//40 64//40 62//40
f 91//41 90//41 64//41
f 62//42 64//42 66//42
f 62//43 66//43 65//43
f 64//44 61//44 67//44
f 67//45 68//45 69//45
f 67//46 63//46 68//46
f 63//47 88//47 68//47
f 65//48 66//48 70//48
f 66//49 69//49 70//49
f 66//50 67//50 69//50
f 70//51 69//51 72//51
f 88//52 79//52 73//52
f 70//53 72//53 74//53
f 74//54 73//54 75//54
f 71//55 74//55 76//55
f 71//56 76//56 78//56
f 76//57 77//57 78//57
f 76//58 75//58 77//58
f 75//59 82//59 77//59
f 81//60 77//60 80//60
f 85//61 80//61 84//61
f 85//62 84//62 87//62
f 82//63 89//63 84//63
f 86//64 85//64 87//64
f 86//65 87//65 91//65
f 87//66 90//66 91//66
f 65//67 71//67 83//67
f 79//68 88//68 82//68
f 82//69 88//69 89//69
f 86//70 62//70 65//70
f 61//71 89//71 63//71
f 64//72 90//72 61//72
f 67//73 61//73 63//73
f 66//74 64//74 67//74
f 71//75 65//75 70//75
f 69//76 68//76 72//76
f 72//77 68//77 73//77
f 68//78 88//78 73//78
f 74//97 72//97 73//97
f 71//80 70//80 74//80
f 76//81 74//81 75//81
f 73//82 79//82 75//82
f 78//83 77//83 81//83
f 75//84 79//84 82//84
f 71//98 78//98 83//98
f 78//86 81//86 83//86
f 80//87 77//87 82//87
f 85//88 81//88 80//88
f 83//89 81//89 85//89
f 86//90 83//90 85//90
f 84//91 80//91 82//91
f 65//92 83//92 86//92
f 87//93 84//93 90//93
f 90//94 84//94 89//94
f 86//95 91//95 62//95
f 61//96 90//96 89//96
f 120//39 119//39 94//39
f 122//40 95//40 93//40
f 122//99 121//99 95//99
f 93//42 95//42 97//42
f 93//43 97//43 96//43
f 95//44 92//44 98//44
f 98//45 99//45 100//45
f 98//46 94//46 99//46
f 94//47 119//47 99//47
f 96//48 97//48 101//48
f 97//49 100//49 101//49
f 97//50 98//50 100//50
f 101//51 100//51 103//51
f 119//52 110//52 104//52
f 101//53 103//53 105//53
f 105//54 104//54 106//54
f 102//55 105//55 107//55
f 102//56 107//56 109//56
f 107//57 108//57 109//57
f 107//58 106//58 108//58
f 106//59 113//59 108//59
f 112//60 108//60 111//60
f 116//61 111//61 115//61
f 116//62 115//62 118//62
f 113//63 120//63 115//63
f 117//64 116//64 118//64
f 117//65 118//65 122//65
f 118//66 121//66 122//66
f 96//67 102//67 114//67
f 110//68 119//68 113//68
f 113//69 119//69 120//69
f 117//70 93//70 96//70
f 92//71 120//71 94//71
f 95//72 121//72 92//72
f 98//73 92//73 94//73
f 97//74 95//74 98//74
f 102//75 96//75 101//75
f 100//76 99//76 103//76
f 103//77 99//77 104//77
f 99//78 119//78 104//78
f 105//97 103//97 104//97
f 102//80 101//80 105//80
f 107//81 105//81 106//81
f 104//82 110//82 106//82
f 109//83 108//83 112//83
f 106//84 110//84 113//84
f 102//85 109//85 114//85
f 109//86 112//86 114//86
f 111//87 108//87 113//87
f 116//88 112//88 111//88
f 114//89 112//89 116//89
f 117//90 114//90 116//90
f 115//91 111//91 113//91
f 96//92 114//92 117//92
f 118//93 115//93 121//93
f 121//94 115//94 120//94
f 117//95 122//95 93//95
f 92//96 121//96 120//96
f 151//39 150//39 125//39
f 153//40 126//40 124//40
f 153//41 152//41 126//41
f 124//42 126//42 128//42
f 124//43 128//43 127//43
f 126//44 123//44 129//44
f 129//45 130//45 131//45
f 129//46 125//46 130//46
f 125//47 150//47 130//47
f 127//48 128//48 132//48
f 128//49 131//49 132//49
f 128//50 129//50 131//50
f 132//51 131//51 134//51
f 150//52 141//52 135//52
f 132//53 134//53 136//53
f 136//54 135//54 137//54
f 133//55 136//55 138//55
f 133//56 138//56 140//56
f 138//57 139//57 140//57
f 138//58 137//58 139//58
f 137//59 144//59 139//59
f 143//60 139//60 142//60
f 147//61 142//61 146//61
f 147//62 146//62 149//62
f 144//63 151//63 146//63
f 148//64 147//64 149//64
f 148//65 149//65 153//65
f 149//66 152//66 153//66
f 127//67 133//67 145//67
f 141//68 150//68 144//68
f 144//69 150//69 151//69
f 148//70 124//70 127//70
f 123//71 151//71 125//71
f 126//72 152//72 123//72
f 129//73 123//73 125//73
f 128//74 126//74 129//74
f 133//75 127//75 132//75
f 131//76 130//76 134//76
f 134//77 130//77 135//77
f 130//78 150//78 135//78
f 136//79 134//79 135//79
f 133//80 132//80 136//80
f 138//81 136//81 137//81
f 135//82 141//82 137//82
f 140//83 139//83 143//83
f 137//84 141//84 144//84
f 133//85 140//85 145//85
f 140//86 143//86 145//86
f 142//87 139//87 144//87
f 147//88 143//88 142//88
f 145//89 143//89 147//89
f 148//90 145//90 147//90
f 146//91 142//91 144//91
f 127//92 145//92 148//92
f 149//93 146//93 152//93
f 152//94 146//94 151//94
f 148//95 153//95 124//95
f 123//96 152//96 151//96
